<?xml version="1.0" standalone="no"?>
<!DOCTYPE svg PUBLIC "-//W3C//DTD SVG 20010904//EN"
 "http://www.w3.org/TR/2001/REC-SVG-20010904/DTD/svg10.dtd">
<svg version="1.0" xmlns="http://www.w3.org/2000/svg"
 width="1020.000000pt" height="1020.000000pt" viewBox="0 0 1020.000000 1020.000000"
 preserveAspectRatio="xMidYMid meet">
<metadata>
Created by potrace 1.11, written by Peter Selinger 2001-2013
</metadata>
<g transform="translate(0.000000,1020.000000) scale(0.100000,-0.100000)"
fill="#000000" stroke="none">
<path d="M0 5100 l0 -5100 5100 0 5100 0 0 5100 0 5100 -5100 0 -5100 0 0
-5100z m2310 2864 c460 -5 727 -3 930 6 320 14 335 12 383 -51 14 -19 89 -200
167 -404 78 -203 257 -656 397 -1005 599 -1491 845 -2108 924 -2317 46 -123
87 -223 91 -223 8 0 17 20 110 229 86 194 229 537 548 1306 614 1482 886 2149
939 2305 32 92 44 107 103 126 47 15 148 17 848 24 437 5 855 11 929 16 169 9
161 17 161 -162 0 -126 -1 -134 -22 -148 -19 -13 -59 -16 -236 -16 -232 0
-256 -5 -303 -56 -57 -63 -54 -1 -53 -1264 2 -1534 28 -3428 48 -3522 20 -92
47 -148 85 -181 l33 -27 222 0 c184 0 225 -3 244 -16 21 -14 22 -22 22 -149 0
-175 6 -169 -154 -161 -282 14 -1540 18 -1949 6 -331 -10 -420 -10 -432 0 -20
17 -22 294 -2 307 6 4 143 10 304 13 276 5 293 6 320 26 40 30 70 77 82 132
27 116 51 1745 51 3483 l0 1179 -25 0 c-20 0 -30 -10 -50 -50 -53 -104 -215
-486 -723 -1700 -176 -421 -352 -838 -391 -927 -93 -215 -239 -567 -516 -1243
-349 -854 -365 -891 -402 -958 -79 -144 -153 -189 -230 -143 -42 26 -72 80
-163 295 -903 2123 -987 2321 -1230 2921 -279 687 -648 1570 -741 1770 l-32
70 -8 -35 c-24 -111 -51 -1990 -38 -2700 14 -816 38 -1333 69 -1524 47 -284
160 -505 291 -571 46 -24 57 -25 233 -25 102 0 196 -4 210 -10 l26 -10 0 -144
c0 -117 -3 -146 -15 -156 -13 -11 -69 -11 -288 -1 -349 14 -1014 14 -1414 0
-251 -10 -316 -9 -328 1 -12 10 -15 39 -15 149 0 75 5 143 10 151 8 12 48 16
227 20 216 5 218 5 265 33 130 76 225 305 262 628 31 272 62 740 96 1444 39
821 42 977 37 1760 -3 682 -6 778 -21 844 -45 192 -138 297 -294 330 -29 6
-132 11 -228 11 -102 0 -183 4 -195 10 -17 10 -19 23 -19 153 0 101 4 147 13
156 9 9 35 11 102 7 50 -3 380 -9 735 -12z"/>
</g>
</svg>
